<svg width="379" height="381" viewBox="0 0 379 381" fill="none" xmlns="http://www.w3.org/2000/svg">
<path d="M120.647 54.6895C131.817 54.6895 140.872 45.647 140.872 34.4925C140.872 23.3379 131.817 14.2954 120.647 14.2954C109.477 14.2954 100.422 23.3379 100.422 34.4925C100.422 45.647 109.477 54.6895 120.647 54.6895Z" fill="url(#paint0_radial_62_9617)"/>
<path d="M90.3099 72.3619C101.48 72.3619 110.535 63.3194 110.535 52.1648C110.535 41.0103 101.48 31.9678 90.3099 31.9678C79.1401 31.9678 70.0852 41.0103 70.0852 52.1648C70.0852 63.3194 79.1401 72.3619 90.3099 72.3619Z" fill="url(#paint1_radial_62_9617)"/>
<path d="M63.7649 96.3458C74.9347 96.3458 83.9897 87.3033 83.9897 76.1487C83.9897 64.9942 74.9347 55.9517 63.7649 55.9517C52.5951 55.9517 43.5402 64.9942 43.5402 76.1487C43.5402 87.3033 52.5951 96.3458 63.7649 96.3458Z" fill="url(#paint2_radial_62_9617)"/>
<path d="M42.2761 125.379C53.4459 125.379 62.5009 116.337 62.5009 105.182C62.5009 94.0276 53.4459 84.9851 42.2761 84.9851C31.1063 84.9851 22.0514 94.0276 22.0514 105.182C22.0514 116.337 31.1063 125.379 42.2761 125.379Z" fill="url(#paint3_radial_62_9617)"/>
<path d="M28.3716 156.937C39.5415 156.937 48.5964 148.177 48.5964 137.371C48.5964 126.565 39.5415 117.805 28.3716 117.805C17.2018 117.805 8.14691 126.565 8.14691 137.371C8.14691 148.177 17.2018 156.937 28.3716 156.937Z" fill="url(#paint4_radial_62_9617)"/>
<path d="M20.7874 192.282C31.9572 192.282 41.0121 183.24 41.0121 172.085C41.0121 160.93 31.9572 151.888 20.7874 151.888C9.61756 151.888 0.562637 160.93 0.562637 172.085C0.562637 183.24 9.61756 192.282 20.7874 192.282Z" fill="url(#paint5_radial_62_9617)"/>
<path d="M20.7874 227.627C31.9572 227.627 41.0121 218.584 41.0121 207.43C41.0121 196.275 31.9572 187.233 20.7874 187.233C9.61756 187.233 0.562637 196.275 0.562637 207.43C0.562637 218.584 9.61756 227.627 20.7874 227.627Z" fill="url(#paint6_radial_62_9617)"/>
<path d="M27.7396 261.709C38.5604 261.709 47.3323 252.949 47.3323 242.144C47.3323 231.338 38.5604 222.578 27.7396 222.578C16.9189 222.578 8.14691 231.338 8.14691 242.144C8.14691 252.949 16.9189 261.709 27.7396 261.709Z" fill="url(#paint7_radial_62_9617)"/>
<path d="M42.2761 294.53C53.446 294.53 62.5009 285.487 62.5009 274.333C62.5009 263.178 53.446 254.135 42.2761 254.135C31.1063 254.135 22.0514 263.178 22.0514 274.333C22.0514 285.487 31.1063 294.53 42.2761 294.53Z" fill="url(#paint8_radial_62_9617)"/>
<path d="M62.5009 323.563C73.6707 323.563 82.7256 314.52 82.7256 303.366C82.7256 292.211 73.6707 283.169 62.5009 283.169C51.3311 283.169 42.2761 292.211 42.2761 303.366C42.2761 314.52 51.3311 323.563 62.5009 323.563Z" fill="url(#paint9_radial_62_9617)"/>
<path d="M89.0458 347.547C100.216 347.547 109.271 338.504 109.271 327.35C109.271 316.195 100.216 307.153 89.0458 307.153C77.876 307.153 68.8211 316.195 68.8211 327.35C68.8211 338.504 77.876 347.547 89.0458 347.547Z" fill="url(#paint10_radial_62_9617)"/>
<path d="M120.015 365.219C130.836 365.219 139.608 356.177 139.608 345.022C139.608 333.868 130.836 324.825 120.015 324.825C109.194 324.825 100.422 333.868 100.422 345.022C100.422 356.177 109.194 365.219 120.015 365.219Z" fill="url(#paint11_radial_62_9617)"/>
<path d="M153.512 376.58C164.682 376.58 173.737 367.538 173.737 356.383C173.737 345.229 164.682 336.186 153.512 336.186C142.342 336.186 133.287 345.229 133.287 356.383C133.287 367.538 142.342 376.58 153.512 376.58Z" fill="url(#paint12_radial_62_9617)"/>
<path d="M188.905 380.367C200.075 380.367 209.13 371.325 209.13 360.17C209.13 349.016 200.075 339.973 188.905 339.973C177.736 339.973 168.681 349.016 168.681 360.17C168.681 371.325 177.736 380.367 188.905 380.367Z" fill="url(#paint13_radial_62_9617)"/>
<path d="M224.299 376.58C235.469 376.58 244.523 367.538 244.523 356.383C244.523 345.229 235.469 336.186 224.299 336.186C213.129 336.186 204.074 345.229 204.074 356.383C204.074 367.538 213.129 376.58 224.299 376.58Z" fill="url(#paint14_radial_62_9617)"/>
<path d="M257.796 365.219C268.617 365.219 277.389 356.46 277.389 345.654C277.389 334.848 268.617 326.088 257.796 326.088C246.975 326.088 238.203 334.848 238.203 345.654C238.203 356.46 246.975 365.219 257.796 365.219Z" fill="url(#paint15_radial_62_9617)"/>
<path d="M288.765 347.547C299.935 347.547 308.99 338.787 308.99 327.981C308.99 317.175 299.935 308.415 288.765 308.415C277.595 308.415 268.54 317.175 268.54 327.981C268.54 338.787 277.595 347.547 288.765 347.547Z" fill="url(#paint16_radial_62_9617)"/>
<path d="M315.31 324.825C326.48 324.825 335.535 315.783 335.535 304.628C335.535 293.474 326.48 284.431 315.31 284.431C304.14 284.431 295.085 293.474 295.085 304.628C295.085 315.783 304.14 324.825 315.31 324.825Z" fill="url(#paint17_radial_62_9617)"/>
<path d="M336.167 295.792C346.988 295.792 355.76 286.749 355.76 275.595C355.76 264.44 346.988 255.398 336.167 255.398C325.346 255.398 316.574 264.44 316.574 275.595C316.574 286.749 325.346 295.792 336.167 295.792Z" fill="url(#paint18_radial_62_9617)"/>
<path d="M350.703 262.972C361.873 262.972 370.928 254.212 370.928 243.406C370.928 232.6 361.873 223.84 350.703 223.84C339.534 223.84 330.479 232.6 330.479 243.406C330.479 254.212 339.534 262.972 350.703 262.972Z" fill="url(#paint19_radial_62_9617)"/>
<path d="M358.288 228.889C369.457 228.889 378.512 219.847 378.512 208.692C378.512 197.538 369.457 188.495 358.288 188.495C347.118 188.495 338.063 197.538 338.063 208.692C338.063 219.847 347.118 228.889 358.288 228.889Z" fill="url(#paint20_radial_62_9617)"/>
<path d="M358.288 193.544C369.457 193.544 378.512 184.502 378.512 173.347C378.512 162.193 369.457 153.15 358.288 153.15C347.118 153.15 338.063 162.193 338.063 173.347C338.063 184.502 347.118 193.544 358.288 193.544Z" fill="url(#paint21_radial_62_9617)"/>
<path d="M350.703 158.2C361.873 158.2 370.928 149.157 370.928 138.002C370.928 126.848 361.873 117.805 350.703 117.805C339.534 117.805 330.479 126.848 330.479 138.002C330.479 149.157 339.534 158.2 350.703 158.2Z" fill="url(#paint22_radial_62_9617)"/>
<path d="M336.799 125.379C347.969 125.379 357.024 116.619 357.024 105.813C357.024 95.0073 347.969 86.2473 336.799 86.2473C325.629 86.2473 316.574 95.0073 316.574 105.813C316.574 116.619 325.629 125.379 336.799 125.379Z" fill="url(#paint23_radial_62_9617)"/>
<path d="M315.942 97.6082C326.763 97.6082 335.535 88.5657 335.535 77.4112C335.535 66.2566 326.763 57.2141 315.942 57.2141C305.121 57.2141 296.349 66.2566 296.349 77.4112C296.349 88.5657 305.121 97.6082 315.942 97.6082Z" fill="url(#paint24_radial_62_9617)"/>
<path d="M290.029 73.6241C301.199 73.6241 310.254 64.5816 310.254 53.427C310.254 42.2725 301.199 33.23 290.029 33.23C278.859 33.23 269.804 42.2725 269.804 53.427C269.804 64.5816 278.859 73.6241 290.029 73.6241Z" fill="url(#paint25_radial_62_9617)"/>
<path d="M259.06 54.6894C269.881 54.6894 278.653 45.9295 278.653 35.1235C278.653 24.3176 269.881 15.5576 259.06 15.5576C248.239 15.5576 239.467 24.3176 239.467 35.1235C239.467 45.9295 248.239 54.6894 259.06 54.6894Z" fill="url(#paint26_radial_62_9617)"/>
<path d="M225.563 44.5909C236.733 44.5909 245.788 35.5484 245.788 24.3938C245.788 13.2393 236.733 4.19678 225.563 4.19678C214.393 4.19678 205.338 13.2393 205.338 24.3938C205.338 35.5484 214.393 44.5909 225.563 44.5909Z" fill="url(#paint27_radial_62_9617)"/>
<path d="M190.17 40.804C201.339 40.804 210.394 31.7615 210.394 20.607C210.394 9.45245 201.339 0.409912 190.17 0.409912C179 0.409912 169.945 9.45245 169.945 20.607C169.945 31.7615 179 40.804 190.17 40.804Z" fill="url(#paint28_radial_62_9617)"/>
<path d="M154.776 44.5909C165.946 44.5909 175.001 35.5484 175.001 24.3938C175.001 13.2393 165.946 4.19678 154.776 4.19678C143.606 4.19678 134.551 13.2393 134.551 24.3938C134.551 35.5484 143.606 44.5909 154.776 44.5909Z" fill="url(#paint29_radial_62_9617)"/>
<defs>
<radialGradient id="paint0_radial_62_9617" cx="0" cy="0" r="1" gradientUnits="userSpaceOnUse" gradientTransform="translate(120.647 34.4925) rotate(90) scale(20.1971 20.2247)">
<stop stop-color="#FFCF7C"/>
<stop offset="0.44" stop-color="#DBAC5B"/>
<stop offset="0.795" stop-color="#B6893A"/>
<stop offset="1" stop-color="#77623D"/>
</radialGradient>
<radialGradient id="paint1_radial_62_9617" cx="0" cy="0" r="1" gradientUnits="userSpaceOnUse" gradientTransform="translate(90.3099 52.1648) rotate(90) scale(20.1971 20.2247)">
<stop stop-color="#FFCF7C"/>
<stop offset="0.44" stop-color="#DBAC5B"/>
<stop offset="0.795" stop-color="#B6893A"/>
<stop offset="1" stop-color="#77623D"/>
</radialGradient>
<radialGradient id="paint2_radial_62_9617" cx="0" cy="0" r="1" gradientUnits="userSpaceOnUse" gradientTransform="translate(63.7649 76.1487) rotate(90) scale(20.1971 20.2247)">
<stop stop-color="#FFCF7C"/>
<stop offset="0.44" stop-color="#DBAC5B"/>
<stop offset="0.795" stop-color="#B6893A"/>
<stop offset="1" stop-color="#77623D"/>
</radialGradient>
<radialGradient id="paint3_radial_62_9617" cx="0" cy="0" r="1" gradientUnits="userSpaceOnUse" gradientTransform="translate(42.2761 105.182) rotate(90) scale(20.1971 20.2247)">
<stop stop-color="#FFCF7C"/>
<stop offset="0.44" stop-color="#DBAC5B"/>
<stop offset="0.795" stop-color="#B6893A"/>
<stop offset="1" stop-color="#77623D"/>
</radialGradient>
<radialGradient id="paint4_radial_62_9617" cx="0" cy="0" r="1" gradientUnits="userSpaceOnUse" gradientTransform="translate(28.3716 137.371) rotate(90) scale(19.5659 20.2247)">
<stop stop-color="#FFCF7C"/>
<stop offset="0.44" stop-color="#DBAC5B"/>
<stop offset="0.795" stop-color="#B6893A"/>
<stop offset="1" stop-color="#77623D"/>
</radialGradient>
<radialGradient id="paint5_radial_62_9617" cx="0" cy="0" r="1" gradientUnits="userSpaceOnUse" gradientTransform="translate(20.7874 172.085) rotate(90) scale(20.1971 20.2247)">
<stop stop-color="#FFCF7C"/>
<stop offset="0.44" stop-color="#DBAC5B"/>
<stop offset="0.795" stop-color="#B6893A"/>
<stop offset="1" stop-color="#77623D"/>
</radialGradient>
<radialGradient id="paint6_radial_62_9617" cx="0" cy="0" r="1" gradientUnits="userSpaceOnUse" gradientTransform="translate(20.7874 207.43) rotate(90) scale(20.1971 20.2247)">
<stop stop-color="#FFCF7C"/>
<stop offset="0.44" stop-color="#DBAC5B"/>
<stop offset="0.795" stop-color="#B6893A"/>
<stop offset="1" stop-color="#77623D"/>
</radialGradient>
<radialGradient id="paint7_radial_62_9617" cx="0" cy="0" r="1" gradientUnits="userSpaceOnUse" gradientTransform="translate(27.7396 242.144) rotate(90) scale(19.5659 19.5927)">
<stop stop-color="#FFCF7C"/>
<stop offset="0.44" stop-color="#DBAC5B"/>
<stop offset="0.795" stop-color="#B6893A"/>
<stop offset="1" stop-color="#77623D"/>
</radialGradient>
<radialGradient id="paint8_radial_62_9617" cx="0" cy="0" r="1" gradientUnits="userSpaceOnUse" gradientTransform="translate(42.2761 274.333) rotate(90) scale(20.1971 20.2247)">
<stop stop-color="#FFCF7C"/>
<stop offset="0.44" stop-color="#DBAC5B"/>
<stop offset="0.795" stop-color="#B6893A"/>
<stop offset="1" stop-color="#77623D"/>
</radialGradient>
<radialGradient id="paint9_radial_62_9617" cx="0" cy="0" r="1" gradientUnits="userSpaceOnUse" gradientTransform="translate(62.5009 303.366) rotate(90) scale(20.1971 20.2247)">
<stop stop-color="#FFCF7C"/>
<stop offset="0.44" stop-color="#DBAC5B"/>
<stop offset="0.795" stop-color="#B6893A"/>
<stop offset="1" stop-color="#77623D"/>
</radialGradient>
<radialGradient id="paint10_radial_62_9617" cx="0" cy="0" r="1" gradientUnits="userSpaceOnUse" gradientTransform="translate(89.0458 327.35) rotate(90) scale(20.1971 20.2247)">
<stop stop-color="#FFCF7C"/>
<stop offset="0.44" stop-color="#DBAC5B"/>
<stop offset="0.795" stop-color="#B6893A"/>
<stop offset="1" stop-color="#77623D"/>
</radialGradient>
<radialGradient id="paint11_radial_62_9617" cx="0" cy="0" r="1" gradientUnits="userSpaceOnUse" gradientTransform="translate(120.015 345.022) rotate(90) scale(20.1971 19.5927)">
<stop stop-color="#FFCF7C"/>
<stop offset="0.44" stop-color="#DBAC5B"/>
<stop offset="0.795" stop-color="#B6893A"/>
<stop offset="1" stop-color="#77623D"/>
</radialGradient>
<radialGradient id="paint12_radial_62_9617" cx="0" cy="0" r="1" gradientUnits="userSpaceOnUse" gradientTransform="translate(153.512 356.383) rotate(90) scale(20.1971 20.2247)">
<stop stop-color="#FFCF7C"/>
<stop offset="0.44" stop-color="#DBAC5B"/>
<stop offset="0.795" stop-color="#B6893A"/>
<stop offset="1" stop-color="#77623D"/>
</radialGradient>
<radialGradient id="paint13_radial_62_9617" cx="0" cy="0" r="1" gradientUnits="userSpaceOnUse" gradientTransform="translate(188.905 360.17) rotate(90) scale(20.1971 20.2247)">
<stop stop-color="#FFCF7C"/>
<stop offset="0.44" stop-color="#DBAC5B"/>
<stop offset="0.795" stop-color="#B6893A"/>
<stop offset="1" stop-color="#77623D"/>
</radialGradient>
<radialGradient id="paint14_radial_62_9617" cx="0" cy="0" r="1" gradientUnits="userSpaceOnUse" gradientTransform="translate(224.299 356.383) rotate(90) scale(20.1971 20.2247)">
<stop stop-color="#FFCF7C"/>
<stop offset="0.44" stop-color="#DBAC5B"/>
<stop offset="0.795" stop-color="#B6893A"/>
<stop offset="1" stop-color="#77623D"/>
</radialGradient>
<radialGradient id="paint15_radial_62_9617" cx="0" cy="0" r="1" gradientUnits="userSpaceOnUse" gradientTransform="translate(257.796 345.654) rotate(90) scale(19.5659 19.5927)">
<stop stop-color="#FFCF7C"/>
<stop offset="0.44" stop-color="#DBAC5B"/>
<stop offset="0.795" stop-color="#B6893A"/>
<stop offset="1" stop-color="#77623D"/>
</radialGradient>
<radialGradient id="paint16_radial_62_9617" cx="0" cy="0" r="1" gradientUnits="userSpaceOnUse" gradientTransform="translate(288.765 327.981) rotate(90) scale(19.5659 20.2247)">
<stop stop-color="#FFCF7C"/>
<stop offset="0.44" stop-color="#DBAC5B"/>
<stop offset="0.795" stop-color="#B6893A"/>
<stop offset="1" stop-color="#77623D"/>
</radialGradient>
<radialGradient id="paint17_radial_62_9617" cx="0" cy="0" r="1" gradientUnits="userSpaceOnUse" gradientTransform="translate(315.31 304.628) rotate(90) scale(20.1971 20.2247)">
<stop stop-color="#FFCF7C"/>
<stop offset="0.44" stop-color="#DBAC5B"/>
<stop offset="0.795" stop-color="#B6893A"/>
<stop offset="1" stop-color="#77623D"/>
</radialGradient>
<radialGradient id="paint18_radial_62_9617" cx="0" cy="0" r="1" gradientUnits="userSpaceOnUse" gradientTransform="translate(336.167 275.595) rotate(90) scale(20.1971 19.5927)">
<stop stop-color="#FFCF7C"/>
<stop offset="0.44" stop-color="#DBAC5B"/>
<stop offset="0.795" stop-color="#B6893A"/>
<stop offset="1" stop-color="#77623D"/>
</radialGradient>
<radialGradient id="paint19_radial_62_9617" cx="0" cy="0" r="1" gradientUnits="userSpaceOnUse" gradientTransform="translate(350.703 243.406) rotate(90) scale(19.5659 20.2247)">
<stop stop-color="#FFCF7C"/>
<stop offset="0.44" stop-color="#DBAC5B"/>
<stop offset="0.795" stop-color="#B6893A"/>
<stop offset="1" stop-color="#77623D"/>
</radialGradient>
<radialGradient id="paint20_radial_62_9617" cx="0" cy="0" r="1" gradientUnits="userSpaceOnUse" gradientTransform="translate(358.288 208.692) rotate(90) scale(20.1971 20.2247)">
<stop stop-color="#FFCF7C"/>
<stop offset="0.44" stop-color="#DBAC5B"/>
<stop offset="0.795" stop-color="#B6893A"/>
<stop offset="1" stop-color="#77623D"/>
</radialGradient>
<radialGradient id="paint21_radial_62_9617" cx="0" cy="0" r="1" gradientUnits="userSpaceOnUse" gradientTransform="translate(358.288 173.347) rotate(90) scale(20.1971 20.2247)">
<stop stop-color="#FFCF7C"/>
<stop offset="0.44" stop-color="#DBAC5B"/>
<stop offset="0.795" stop-color="#B6893A"/>
<stop offset="1" stop-color="#77623D"/>
</radialGradient>
<radialGradient id="paint22_radial_62_9617" cx="0" cy="0" r="1" gradientUnits="userSpaceOnUse" gradientTransform="translate(350.703 138.002) rotate(90) scale(20.1971 20.2247)">
<stop stop-color="#FFCF7C"/>
<stop offset="0.44" stop-color="#DBAC5B"/>
<stop offset="0.795" stop-color="#B6893A"/>
<stop offset="1" stop-color="#77623D"/>
</radialGradient>
<radialGradient id="paint23_radial_62_9617" cx="0" cy="0" r="1" gradientUnits="userSpaceOnUse" gradientTransform="translate(336.799 105.813) rotate(90) scale(19.5659 20.2247)">
<stop stop-color="#FFCF7C"/>
<stop offset="0.44" stop-color="#DBAC5B"/>
<stop offset="0.795" stop-color="#B6893A"/>
<stop offset="1" stop-color="#77623D"/>
</radialGradient>
<radialGradient id="paint24_radial_62_9617" cx="0" cy="0" r="1" gradientUnits="userSpaceOnUse" gradientTransform="translate(315.942 77.4112) rotate(90) scale(20.1971 19.5927)">
<stop stop-color="#FFCF7C"/>
<stop offset="0.44" stop-color="#DBAC5B"/>
<stop offset="0.795" stop-color="#B6893A"/>
<stop offset="1" stop-color="#77623D"/>
</radialGradient>
<radialGradient id="paint25_radial_62_9617" cx="0" cy="0" r="1" gradientUnits="userSpaceOnUse" gradientTransform="translate(290.029 53.427) rotate(90) scale(20.1971 20.2247)">
<stop stop-color="#FFCF7C"/>
<stop offset="0.44" stop-color="#DBAC5B"/>
<stop offset="0.795" stop-color="#B6893A"/>
<stop offset="1" stop-color="#77623D"/>
</radialGradient>
<radialGradient id="paint26_radial_62_9617" cx="0" cy="0" r="1" gradientUnits="userSpaceOnUse" gradientTransform="translate(259.06 35.1235) rotate(90) scale(19.5659 19.5927)">
<stop stop-color="#FFCF7C"/>
<stop offset="0.44" stop-color="#DBAC5B"/>
<stop offset="0.795" stop-color="#B6893A"/>
<stop offset="1" stop-color="#77623D"/>
</radialGradient>
<radialGradient id="paint27_radial_62_9617" cx="0" cy="0" r="1" gradientUnits="userSpaceOnUse" gradientTransform="translate(225.563 24.3938) rotate(90) scale(20.1971 20.2247)">
<stop stop-color="#FFCF7C"/>
<stop offset="0.44" stop-color="#DBAC5B"/>
<stop offset="0.795" stop-color="#B6893A"/>
<stop offset="1" stop-color="#77623D"/>
</radialGradient>
<radialGradient id="paint28_radial_62_9617" cx="0" cy="0" r="1" gradientUnits="userSpaceOnUse" gradientTransform="translate(190.17 20.607) rotate(90) scale(20.1971 20.2247)">
<stop stop-color="#FFCF7C"/>
<stop offset="0.44" stop-color="#DBAC5B"/>
<stop offset="0.795" stop-color="#B6893A"/>
<stop offset="1" stop-color="#77623D"/>
</radialGradient>
<radialGradient id="paint29_radial_62_9617" cx="0" cy="0" r="1" gradientUnits="userSpaceOnUse" gradientTransform="translate(154.776 24.3938) rotate(90) scale(20.1971 20.2247)">
<stop stop-color="#FFCF7C"/>
<stop offset="0.44" stop-color="#DBAC5B"/>
<stop offset="0.795" stop-color="#B6893A"/>
<stop offset="1" stop-color="#77623D"/>
</radialGradient>
</defs>
</svg>
